<svg width="34" height="34" xmlns="http://www.w3.org/2000/svg"><path d="M9.98205664 15.026c1.10299996 0 1.99999996.897 1.99999996 2s-.897 2-1.99999996 2c-1.103 0-2-.897-2-2s.897-2 2-2zm13.97299996-2.449l-1.415 1.414 2.033 2.033-10.737-.013c-.159-.601-.452-1.142-.848-1.598l5.021-5.003-.001 2.5871848h2V7c0-.553-.447-1-1-1h-5.0131009v2h2.5951009l-5.286 5.268c-.416-.147-.856-.242-1.32199996-.242-2.209 0-4 1.791-4 4s1.791 4 4 4c.47799996 0 .93099996-.098 1.35499996-.252l5.261 5.279-2.6031009-.001v2h5.0131009c.553 0 1-.447 1-1v-5.0475343h-2V24.634l-5.001-5.018c.393-.458.684-1.001.838-1.605l10.734.013-2.039 2.037 1.415 1.415 3.742-3.742c.39-.391.39-1.024 0-1.415l-3.742-3.742z" fill="#FFF" fill-rule="evenodd"/></svg>