<svg width="34" height="34" xmlns="http://www.w3.org/2000/svg"><path d="M18.9959106,12.0013 C19.5481954,12.0013 19.9959106,12.4490153 19.9959106,13.0013 L19.9959106,13.0013 L19.9959106,15.0013 L23.9959106,15.0013 C24.5481954,15.0013 24.9959106,15.4490153 24.9959106,16.0013 L24.9959106,16.0013 L24.9959106,26.0013 C24.9959106,26.5535847 24.5481954,27.0013 23.9959106,27.0013 L23.9959106,27.0013 L9.99591064,27.0013 C9.44362589,27.0013 8.99591064,26.5535847 8.99591064,26.0013 L8.99591064,26.0013 L8.99591064,16.0013 C8.99591064,15.4490153 9.44362589,15.0013 9.99591064,15.0013 L9.99591064,15.0013 L13.9959106,15.0013 L13.9959106,13.0013 C13.9959106,12.4490153 14.4436259,12.0013 14.9959106,12.0013 L14.9959106,12.0013 Z M22.9959106,17.0013 L10.9959106,17.0013 L10.9959106,25.0013 L22.9959106,25.0013 L22.9959106,17.0013 Z M17.9959106,14.0013 L15.9959106,14.0013 L15.9959106,15.0013 L17.9959106,15.0013 L17.9959106,14.0013 Z M9.40681064,7.3996 L11.9768106,10.4636 L10.4448106,11.7486 L7.87381064,8.6846 L9.40681064,7.3996 Z M24.5856106,7.3999 L26.1186106,8.6849 L23.5476106,11.7489 L22.0146106,10.4639 L24.5856106,7.3999 Z M17.9958106,5 L17.9958106,9.001 L15.9958106,9.001 L15.9958106,5 L17.9958106,5 Z" fill="#FFFFFF"></path></svg>