<svg width="34" height="34" xmlns="http://www.w3.org/2000/svg">
<path d="M21.9851,16.0002982 C23.4321,15.9944 24.8681,16.5144 25.9971,17.5174 L25.9971,17.5174 L25.9971,16.0002982 L27.9971,16.0002982 L27.9971,20.0004 C27.9971,20.5524 27.5501,21.0004 26.9961,21.0004 L26.9961,21.0004 L23.0001,21.0004 L23.0001,19.0004 L24.6451,19.0004 C23.1881,17.7274 20.9801,17.6484 19.4451,18.9234 C18.6211,19.6054 18.1141,20.5684 18.0171,21.6344 C17.9191,22.6954 18.2431,23.7324 18.9271,24.5544 C20.3401,26.2504 22.8751,26.4814 24.5761,25.0704 C25.2311,24.5284 25.6751,23.8054 25.8831,22.9964 L25.8831,22.9964 L27.9321,22.9964 C27.6951,24.4124 26.9711,25.6844 25.8541,26.6094 C24.7331,27.5404 23.3701,27.9934 22.0161,27.9934 C20.2901,27.9934 18.5781,27.2594 17.3911,25.8354 C16.4931,24.7574 16.0091,23.4324 16.0001,22.0454 C15.9991,21.8484 16.0071,21.6494 16.0251,21.4504 C16.1711,19.8544 16.9321,18.4094 18.1671,17.3844 C19.2821,16.4594 20.6351,16.0054 21.9821,16.0002982 L21.9821,16.0002982 Z M18,7 C18.5522847,7 19,7.44771525 19,8 L19,10 L23,10 C23.5522847,10 24,10.4477153 24,11 L23.999,13 L22,13 L22,12 L9,12 L9,22 L13,22 L13,24 L8,24 C7.44771525,24 7,23.5522847 7,23 L7,11 C7,10.4477153 7.44771525,10 8,10 L12,10 L12,8 C12,7.44771525 12.4477153,7 13,7 L18,7 Z M17,9 L14,9 L14,10 L17,10 L17,9 Z" fill="#FFFFFF"></path></svg>
