<svg width="34" height="34" xmlns="http://www.w3.org/2000/svg"><path d="M12.9611816 7c.8239011 0 1.6205315.17741336 3.2041611.68271624l2.126643.69654375.479865.15100399c.9771734.30114755 1.5617967.4361464 2.0253611.464115L20.9799805 9c.9764152 0 1.9572306-.20207733 2.9486774-.61061276.7659184-.3155053 1.6426194.04954885 1.9582174.81545198C25.9615671 9.3861036 26 9.5802522 26 9.77630229v8.91282851c0 .5797795-.3341676 1.1076386-.8582015 1.3557102C23.8003564 20.6798643 22.4196913 21 21.0092773 21c-.8686971 0-1.7268411-.2007472-3.4533017-.7584863l-1.8936327-.6217205-.5014802-.1578333C14.065525 19.1246584 13.4746345 19 12.9885254 19c-.9883505 0-1.9823415.2109026-2.9876066.6379239L10 27H8V9.3099415c0-.5784654.33274374-1.10536244.85501378-1.35410767C10.189092 7.32044301 11.5609943 7 12.9611816 7zm0 2c-.8890317 0-1.7658115.16534264-2.6354092.49894846l-.32577241.13299523L9.999 10H10v7.5l.3718182-.1167684C11.2400667 17.1283279 12.1129332 17 12.9885254 17c.8640598 0 1.6804299.1935824 3.4767029.7768515l1.7244828.5671953C19.6713921 18.8207637 20.423094 19 21.0092773 19c1.011621 0 2.0061359-.2098697 2.9907227-.6335849v-7.8701015C22.9984295 10.8313276 21.9906588 11 20.9799805 11c-.907893 0-1.771677-.2138773-3.7306461-.8559754l-1.4238197-.46930882C14.2936429 9.17973362 13.5489353 9 12.9611816 9z" fill="#FFF" fill-rule="evenodd"/></svg>