<svg width="34" height="34" xmlns="http://www.w3.org/2000/svg"><path d="M17 5c6.627417 0 12 5.372583 12 12s-5.372583 12-12 12S5 23.627417 5 17 10.372583 5 17 5zm0 2C11.4771525 7 7 11.4771525 7 17s4.4771525 10 10 10 10-4.4771525 10-10S22.5228475 7 17 7zm-.980896 6.7915419c.1853793 0 .3671096.0515296.524898.1488348l3.6215761 2.2333598c.4700855.2898932.6161603.9059776.3262671 1.3760631-.0771022.1250276-.1808016.231534-.3037257.3119473l-3.621576 2.369128c-.4621769.3023425-1.0819423.1727711-1.3842848-.2894058-.1064561-.1627346-.1631547-.3529775-.1631547-.5474395v-4.6024877c0-.5522848.4477153-1 1-1z" fill="#FFF" fill-rule="evenodd"/></svg>