<svg width="34" height="34" xmlns="http://www.w3.org/2000/svg"><path d="M12.1750928,24.980957 L10.4165,24.9783925 L12.4495,27.0113925 L11.0355,28.4253925 L7.2925,24.6823925 C6.9025,24.2923925 6.9025,23.6593925 7.2925,23.2683925 L7.2925,23.2683925 L11.0355,19.5263925 L12.4495,20.9403925 L10.4115,22.9783925 L12.2675,22.9803925 L17.4766064,22.980957 C18.8520597,22.980957 19.967085,21.8659318 19.967085,20.4904785 C19.967085,19.1150252 18.8520597,18 17.4766064,18 L17.4766064,18 L16.5778638,18 C14.0766381,18 12.0489941,15.972356 12.0489941,13.4711304 C12.0489941,10.9699047 14.0766381,8.94226074 16.5778638,8.94226074 L16.5778638,8.94226074 L19.1216359,8.94208345 C19.5854487,7.24624247 21.1372076,6 22.9802686,6 C25.1895533,6 26.9802686,7.79071525 26.9802686,10 C26.9802686,12.2085786 25.1892595,14 22.9802686,14 C21.0960035,14 19.5158645,12.6965516 19.0920157,10.9425867 L16.5778638,10.9422607 C15.1812076,10.9422607 14.0489941,12.0744742 14.0489941,13.4711304 C14.0489941,14.8677865 15.1812076,16 16.5778638,16 L16.5778638,16 L17.4766064,16 C19.9566292,16 21.967085,18.0104557 21.967085,20.4904785 C21.967085,22.9705013 19.9566292,24.980957 17.4766064,24.980957 L17.4766064,24.980957 L12.1750928,24.980957 Z M22.9802686,8 C21.8966433,8 21.0145285,8.86142745 20.9812427,9.93696371 L20.982,10.06 L20.9857558,10.1492055 C21.0621252,11.1837055 21.9261464,12 22.9802686,12 C24.084587,12 24.9802686,11.1041122 24.9802686,10 C24.9802686,8.89528475 24.0849838,8 22.9802686,8 Z" fill="#fff"></path></svg>