<svg width="34" height="34" xmlns="http://www.w3.org/2000/svg"><path d="M22.9851,14.0002982 C24.4321,13.9944 25.8681,14.5144 26.9971,15.5174 L26.9971,15.5174 L26.9971,14.0002982 L28.9971,14.0002982 L28.9971,18.0004 C28.9971,18.5524 28.5501,19.0004 27.9961,19.0004 L27.9961,19.0004 L24.0001,19.0004 L24.0001,17.0004 L25.6451,17.0004 C24.1881,15.7274 21.9801,15.6484 20.4451,16.9234 C19.6211,17.6054 19.1141,18.5684 19.0171,19.6344 C18.9191,20.6954 19.2431,21.7324 19.9271,22.5544 C21.3401,24.2504 23.8751,24.4814 25.5761,23.0704 C26.2311,22.5284 26.6751,21.8054 26.8831,20.9964 L26.8831,20.9964 L28.9321,20.9964 C28.6951,22.4124 27.9711,23.6844 26.8541,24.6094 C25.7331,25.5404 24.3701,25.9934 23.0161,25.9934 C21.2901,25.9934 19.5781,25.2594 18.3911,23.8354 C17.4931,22.7574 17.0091,21.4324 17.0001,20.0454 C16.9991,19.8484 17.0071,19.6494 17.0251,19.4504 C17.1711,17.8544 17.9321,16.4094 19.1671,15.3844 C20.2821,14.4594 21.6351,14.0054 22.9821,14.0002982 L22.9821,14.0002982 Z M13,20 L13,22 L8,22 L8,20 L13,20 Z M15,14 L15,16 L8,16 L8,14 L15,14 Z M24,8 L24,10 L8,10 L8,8 L24,8 Z" fill="#FFF" fill-rule="evenodd" /></svg>